<mxfile host="app.diagrams.net" modified="2024-05-04T08:50:55.074Z" agent="Mozilla/5.0 (Windows NT 10.0; Win64; x64) AppleWebKit/537.36 (KHTML, like Gecko) Chrome/124.0.0.0 Safari/537.36" etag="uUnaU0AtD9JpHcDuZpPo" version="24.3.1" type="google">
  <diagram name="Page-1" id="_NGdemTNfJz1wjADzNZN">
    <mxGraphModel grid="1" page="1" gridSize="10" guides="1" tooltips="1" connect="1" arrows="1" fold="1" pageScale="1" pageWidth="827" pageHeight="1169" math="0" shadow="0">
      <root>
        <mxCell id="0" />
        <mxCell id="1" parent="0" />
        <mxCell id="dytkw6PWJHVjonsrYuQC-2" value="Người dùng" style="swimlane;whiteSpace=wrap;html=1;fillColor=#E6E6E6;startSize=40;" vertex="1" parent="1">
          <mxGeometry x="40" y="40" width="320" height="560" as="geometry" />
        </mxCell>
        <mxCell id="dytkw6PWJHVjonsrYuQC-4" value="" style="ellipse;html=1;shape=startState;fillColor=#000000;strokeColor=#ff0000;" vertex="1" parent="dytkw6PWJHVjonsrYuQC-2">
          <mxGeometry x="20" y="85" width="30" height="30" as="geometry" />
        </mxCell>
        <mxCell id="dytkw6PWJHVjonsrYuQC-5" value="" style="edgeStyle=orthogonalEdgeStyle;html=1;verticalAlign=bottom;endArrow=open;endSize=8;strokeColor=#ff0000;rounded=0;" edge="1" parent="dytkw6PWJHVjonsrYuQC-2" source="dytkw6PWJHVjonsrYuQC-4" target="dytkw6PWJHVjonsrYuQC-6">
          <mxGeometry relative="1" as="geometry">
            <mxPoint x="100" y="70" as="targetPoint" />
          </mxGeometry>
        </mxCell>
        <mxCell id="dytkw6PWJHVjonsrYuQC-6" value="&lt;span id=&quot;docs-internal-guid-635f4b4d-7fff-76a7-d62c-e627535a9a0b&quot;&gt;&lt;span data-sider-select-id=&quot;1eca19d3-24c0-45d5-9bcc-4c3fd9262b84&quot; style=&quot;font-family: Arial, sans-serif; background-color: transparent; font-variant-numeric: normal; font-variant-east-asian: normal; font-variant-alternates: normal; font-variant-position: normal; vertical-align: baseline; white-space-collapse: preserve;&quot;&gt;&lt;font data-sider-select-id=&quot;21e3ed32-30cc-4098-b3f7-bb2a5fa2f189&quot; style=&quot;font-size: 12px;&quot;&gt;Chọn “Doanh thu”&lt;/font&gt;&lt;/span&gt;&lt;/span&gt;" style="rounded=1;whiteSpace=wrap;html=1;arcSize=40;fontColor=#000000;fillColor=#ffffc0;strokeColor=#ff0000;" vertex="1" parent="dytkw6PWJHVjonsrYuQC-2">
          <mxGeometry x="100" y="80" width="120" height="40" as="geometry" />
        </mxCell>
        <mxCell id="dytkw6PWJHVjonsrYuQC-9" value="&lt;span id=&quot;docs-internal-guid-e4607f0f-7fff-d855-3353-6097cfd354c9&quot;&gt;&lt;span data-sider-select-id=&quot;13a51252-0505-4296-b4ce-8b1866588bea&quot; style=&quot;font-family: Arial, sans-serif; background-color: transparent; font-variant-numeric: normal; font-variant-east-asian: normal; font-variant-alternates: normal; font-variant-position: normal; vertical-align: baseline; white-space-collapse: preserve;&quot;&gt;&lt;font data-sider-select-id=&quot;f645ffd9-089e-449e-a818-7504f77c9c62&quot; style=&quot;font-size: 12px;&quot;&gt;Chọn lọc thời gian&lt;/font&gt;&lt;/span&gt;&lt;/span&gt;" style="rounded=1;whiteSpace=wrap;html=1;arcSize=40;fontColor=#000000;fillColor=#ffffc0;strokeColor=#ff0000;" vertex="1" parent="dytkw6PWJHVjonsrYuQC-2">
          <mxGeometry x="100" y="160" width="120" height="40" as="geometry" />
        </mxCell>
        <mxCell id="dytkw6PWJHVjonsrYuQC-7" value="" style="edgeStyle=orthogonalEdgeStyle;html=1;verticalAlign=bottom;endArrow=open;endSize=8;strokeColor=#ff0000;rounded=0;entryX=0.5;entryY=0;entryDx=0;entryDy=0;" edge="1" parent="dytkw6PWJHVjonsrYuQC-2" source="dytkw6PWJHVjonsrYuQC-6" target="dytkw6PWJHVjonsrYuQC-9">
          <mxGeometry relative="1" as="geometry">
            <mxPoint x="160" y="145" as="targetPoint" />
          </mxGeometry>
        </mxCell>
        <mxCell id="dytkw6PWJHVjonsrYuQC-16" value="&lt;span id=&quot;docs-internal-guid-6070c633-7fff-ad2d-410d-3e7d9609536b&quot;&gt;&lt;span data-sider-select-id=&quot;ff0c1782-dc71-411d-8f4e-70eefaa3b91b&quot; style=&quot;font-family: Arial, sans-serif; background-color: transparent; font-variant-numeric: normal; font-variant-east-asian: normal; font-variant-alternates: normal; font-variant-position: normal; vertical-align: baseline; white-space-collapse: preserve;&quot;&gt;&lt;font data-sider-select-id=&quot;345c1213-a19b-4161-8195-226c7059882d&quot; style=&quot;font-size: 12px;&quot;&gt;Chọn biểu tượng “Chi tiết các đơn”&lt;/font&gt;&lt;/span&gt;&lt;/span&gt;" style="rounded=1;whiteSpace=wrap;html=1;arcSize=40;fontColor=#000000;fillColor=#ffffc0;strokeColor=#ff0000;" vertex="1" parent="dytkw6PWJHVjonsrYuQC-2">
          <mxGeometry x="95" y="320" width="120" height="40" as="geometry" />
        </mxCell>
        <mxCell id="dytkw6PWJHVjonsrYuQC-19" value="&lt;span id=&quot;docs-internal-guid-a69d11bf-7fff-6d68-9518-b6615f9b8df1&quot;&gt;&lt;span data-sider-select-id=&quot;22661a44-6955-4f71-be7a-aee70a32e66c&quot; style=&quot;font-family: Arial, sans-serif; background-color: transparent; font-variant-numeric: normal; font-variant-east-asian: normal; font-variant-alternates: normal; font-variant-position: normal; vertical-align: baseline; white-space-collapse: preserve;&quot;&gt;&lt;font data-sider-select-id=&quot;3ef3ab3e-908b-483d-aea4-25ace583ca97&quot; style=&quot;font-size: 12px;&quot;&gt;Chọn “Quay lại”&lt;/font&gt;&lt;/span&gt;&lt;/span&gt;" style="rounded=1;whiteSpace=wrap;html=1;arcSize=40;fontColor=#000000;fillColor=#ffffc0;strokeColor=#ff0000;" vertex="1" parent="dytkw6PWJHVjonsrYuQC-2">
          <mxGeometry x="100" y="400" width="120" height="40" as="geometry" />
        </mxCell>
        <mxCell id="dytkw6PWJHVjonsrYuQC-20" value="" style="edgeStyle=orthogonalEdgeStyle;html=1;verticalAlign=bottom;endArrow=open;endSize=8;strokeColor=#ff0000;rounded=0;entryX=0.5;entryY=0;entryDx=0;entryDy=0;" edge="1" parent="dytkw6PWJHVjonsrYuQC-2" source="dytkw6PWJHVjonsrYuQC-19" target="dytkw6PWJHVjonsrYuQC-28">
          <mxGeometry relative="1" as="geometry">
            <mxPoint x="165" y="515" as="targetPoint" />
          </mxGeometry>
        </mxCell>
        <mxCell id="dytkw6PWJHVjonsrYuQC-28" value="" style="ellipse;html=1;shape=endState;fillColor=#000000;strokeColor=#ff0000;" vertex="1" parent="dytkw6PWJHVjonsrYuQC-2">
          <mxGeometry x="145" y="485" width="30" height="30" as="geometry" />
        </mxCell>
        <mxCell id="dytkw6PWJHVjonsrYuQC-25" value="Muốn xem chi tiết?" style="rhombus;whiteSpace=wrap;html=1;fontColor=#000000;fillColor=#ffffc0;strokeColor=#ff0000;" vertex="1" parent="dytkw6PWJHVjonsrYuQC-2">
          <mxGeometry x="90" y="240" width="130" height="40" as="geometry" />
        </mxCell>
        <mxCell id="dytkw6PWJHVjonsrYuQC-34" value="" style="edgeStyle=orthogonalEdgeStyle;html=1;verticalAlign=bottom;endArrow=open;endSize=8;strokeColor=#ff0000;rounded=0;exitX=0;exitY=0.5;exitDx=0;exitDy=0;entryX=0;entryY=0.5;entryDx=0;entryDy=0;" edge="1" parent="dytkw6PWJHVjonsrYuQC-2" source="dytkw6PWJHVjonsrYuQC-25" target="dytkw6PWJHVjonsrYuQC-19">
          <mxGeometry relative="1" as="geometry">
            <mxPoint x="155" y="335" as="targetPoint" />
            <mxPoint x="170" y="455" as="sourcePoint" />
            <Array as="points">
              <mxPoint x="30" y="260" />
              <mxPoint x="30" y="420" />
            </Array>
          </mxGeometry>
        </mxCell>
        <mxCell id="dytkw6PWJHVjonsrYuQC-35" value="Không" style="edgeLabel;html=1;align=center;verticalAlign=middle;resizable=0;points=[];" connectable="0" vertex="1" parent="dytkw6PWJHVjonsrYuQC-34">
          <mxGeometry x="-0.0939" y="2" relative="1" as="geometry">
            <mxPoint y="1" as="offset" />
          </mxGeometry>
        </mxCell>
        <mxCell id="dytkw6PWJHVjonsrYuQC-26" value="" style="edgeStyle=orthogonalEdgeStyle;html=1;align=left;verticalAlign=bottom;endArrow=open;endSize=8;strokeColor=#ff0000;rounded=0;entryX=0.5;entryY=0;entryDx=0;entryDy=0;" edge="1" parent="dytkw6PWJHVjonsrYuQC-2" source="dytkw6PWJHVjonsrYuQC-25" target="dytkw6PWJHVjonsrYuQC-16">
          <mxGeometry x="-1" relative="1" as="geometry">
            <mxPoint x="155" y="325" as="targetPoint" />
          </mxGeometry>
        </mxCell>
        <mxCell id="dytkw6PWJHVjonsrYuQC-40" value="Có" style="edgeLabel;html=1;align=center;verticalAlign=middle;resizable=0;points=[];" connectable="0" vertex="1" parent="dytkw6PWJHVjonsrYuQC-26">
          <mxGeometry x="-0.1403" y="-1" relative="1" as="geometry">
            <mxPoint y="1" as="offset" />
          </mxGeometry>
        </mxCell>
        <mxCell id="dytkw6PWJHVjonsrYuQC-3" value="Hệ thống" style="swimlane;whiteSpace=wrap;html=1;fillColor=#E6E6E6;startSize=40;" vertex="1" parent="1">
          <mxGeometry x="360" y="40" width="200" height="560" as="geometry" />
        </mxCell>
        <mxCell id="dytkw6PWJHVjonsrYuQC-18" value="&lt;span id=&quot;docs-internal-guid-38676a01-7fff-05dc-1213-193470391b9c&quot;&gt;&lt;span data-sider-select-id=&quot;4acd4798-a1eb-4bef-aacb-34cf50aa97a0&quot; style=&quot;font-family: Arial, sans-serif; background-color: transparent; font-variant-numeric: normal; font-variant-east-asian: normal; font-variant-alternates: normal; font-variant-position: normal; vertical-align: baseline; white-space-collapse: preserve;&quot;&gt;&lt;font data-sider-select-id=&quot;8366c1f6-adb5-4364-98ba-d9aa0cd57b9f&quot; style=&quot;font-size: 12px;&quot;&gt;Hiển thị các đơn hàng tạo doanh thu&lt;/font&gt;&lt;/span&gt;&lt;/span&gt;" style="rounded=1;whiteSpace=wrap;html=1;arcSize=40;fontColor=#000000;fillColor=#ffffc0;strokeColor=#ff0000;" vertex="1" parent="dytkw6PWJHVjonsrYuQC-3">
          <mxGeometry x="40" y="320" width="130" height="40" as="geometry" />
        </mxCell>
        <mxCell id="dytkw6PWJHVjonsrYuQC-14" value="&lt;span id=&quot;docs-internal-guid-d3710334-7fff-7421-ec4f-1f05eac728ce&quot;&gt;&lt;span data-sider-select-id=&quot;6f04db79-3d0d-4ccb-ba39-7b85b1eec773&quot; style=&quot;font-family: Arial, sans-serif; background-color: transparent; font-variant-numeric: normal; font-variant-east-asian: normal; font-variant-alternates: normal; font-variant-position: normal; vertical-align: baseline; white-space-collapse: preserve;&quot;&gt;&lt;font data-sider-select-id=&quot;335e7b75-ccbb-4384-8ca1-0c78a78b6022&quot; style=&quot;font-size: 12px;&quot;&gt;Hiển thị biểu đồ doanh thu, giá vốn, lợi nhuận&lt;/font&gt;&lt;/span&gt;&lt;/span&gt;" style="rounded=1;whiteSpace=wrap;html=1;arcSize=40;fontColor=#000000;fillColor=#ffffc0;strokeColor=#ff0000;" vertex="1" parent="dytkw6PWJHVjonsrYuQC-3">
          <mxGeometry x="40" y="160" width="130" height="40" as="geometry" />
        </mxCell>
        <mxCell id="dytkw6PWJHVjonsrYuQC-37" value="" style="edgeStyle=orthogonalEdgeStyle;html=1;verticalAlign=bottom;endArrow=open;endSize=8;strokeColor=#ff0000;rounded=0;exitX=0.5;exitY=1;exitDx=0;exitDy=0;entryX=1;entryY=0.5;entryDx=0;entryDy=0;" edge="1" parent="1" source="dytkw6PWJHVjonsrYuQC-18" target="dytkw6PWJHVjonsrYuQC-19">
          <mxGeometry relative="1" as="geometry">
            <mxPoint x="270" y="405" as="targetPoint" />
            <mxPoint x="420" y="405" as="sourcePoint" />
            <Array as="points">
              <mxPoint x="475" y="460" />
            </Array>
          </mxGeometry>
        </mxCell>
        <mxCell id="dytkw6PWJHVjonsrYuQC-38" value="" style="edgeStyle=orthogonalEdgeStyle;html=1;verticalAlign=bottom;endArrow=open;endSize=8;strokeColor=#ff0000;rounded=0;entryX=0;entryY=0.5;entryDx=0;entryDy=0;exitX=1;exitY=0.5;exitDx=0;exitDy=0;" edge="1" parent="1" source="dytkw6PWJHVjonsrYuQC-16" target="dytkw6PWJHVjonsrYuQC-18">
          <mxGeometry relative="1" as="geometry">
            <mxPoint x="420" y="235" as="targetPoint" />
            <mxPoint x="270" y="235" as="sourcePoint" />
          </mxGeometry>
        </mxCell>
        <mxCell id="dytkw6PWJHVjonsrYuQC-36" value="" style="edgeStyle=orthogonalEdgeStyle;html=1;verticalAlign=bottom;endArrow=open;endSize=8;strokeColor=#ff0000;rounded=0;entryX=1;entryY=0.5;entryDx=0;entryDy=0;exitX=0.5;exitY=1;exitDx=0;exitDy=0;" edge="1" parent="1" source="dytkw6PWJHVjonsrYuQC-14" target="dytkw6PWJHVjonsrYuQC-25">
          <mxGeometry relative="1" as="geometry">
            <mxPoint x="210" y="215" as="targetPoint" />
            <mxPoint x="210" y="170" as="sourcePoint" />
          </mxGeometry>
        </mxCell>
        <mxCell id="dytkw6PWJHVjonsrYuQC-10" value="" style="edgeStyle=orthogonalEdgeStyle;html=1;verticalAlign=bottom;endArrow=open;endSize=8;strokeColor=#ff0000;rounded=0;entryX=0;entryY=0.5;entryDx=0;entryDy=0;" edge="1" parent="1" source="dytkw6PWJHVjonsrYuQC-9" target="dytkw6PWJHVjonsrYuQC-14">
          <mxGeometry relative="1" as="geometry">
            <mxPoint x="200" y="295" as="targetPoint" />
          </mxGeometry>
        </mxCell>
      </root>
    </mxGraphModel>
  </diagram>
</mxfile>
